<?xml version="1.0" encoding="utf-8"?>
<!-- Generator: Adobe Illustrator 19.0.0, SVG Export Plug-In . SVG Version: 6.00 Build 0)  -->
<!DOCTYPE svg PUBLIC "-//W3C//DTD SVG 1.1//EN" "http://www.w3.org/Graphics/SVG/1.1/DTD/svg11.dtd">
<svg version="1.1" id="Layer_1" xmlns="http://www.w3.org/2000/svg" xmlns:xlink="http://www.w3.org/1999/xlink" x="0px" y="0px"
	 viewBox="0 0 100 100" style="enable-background:new 0 0 100 100;" xml:space="preserve">
<style type="text/css">
	.st0{fill:url(#XMLID_4_);}
</style>
<g id="XMLID_1_">
	<g id="XMLID_2_">
		
			<linearGradient id="XMLID_4_" gradientUnits="userSpaceOnUse" x1="50" y1="2.0899" x2="50" y2="86.0645" gradientTransform="matrix(1 0 0 1 0 5.8446)">
			<stop  offset="0" style="stop-color:#B5D445"/>
			<stop  offset="1" style="stop-color:#00D45A"/>
		</linearGradient>
		<path id="XMLID_28_" class="st0" d="M11.6,60.6c0-3,0-5.9,0-8.8c0-2.3,0.9-3.2,3.1-3.2c3.6,0,7.1,0,10.7,0c2.1,0,4.3-0.3,6.3,0.2
			c1.6,0.3,2.3-0.3,2.8-1.3c1.3-2.4,2.7-4.8,3.5-7.3c1.4-4.3,3.9-7.9,7.2-11c0.6-0.5,1.2-1.1,1.8-1.7c1.5-1.3,2.7-3,3.3-4.9
			c0.8-2.9,1.5-5.8,2.1-8.8c0.5-2.6,1.5-4.8,4.2-5.6c2.8-0.8,5.1,0.1,6.7,2.3c1.3,1.8,2.4,3.8,3.1,5.9c1.7,5.3,1.5,10.5-1.9,15.3
			c-1.1,1.4-1.9,3-2.8,4.5c-1.1,1.7-1,2,1.3,2.4c0.2,0,0.3,0,0.5,0c4.5,0.1,9,0,13.5,0.2c1.9,0.1,3.9,0.3,5.5,1.1
			c5.5,2.7,7.3,8.5,4.4,13.9c-0.5,0.8-0.4,1.4,0.1,2.3c2.1,3.5,2,6.1-0.5,9.4c-0.2,0.4-0.5,0.6-0.7,1s-0.3,0.9-0.2,1.2
			C87,71,86.3,74,84,76.6c-0.9,1.1-1.2,2.2-0.7,3.6c0.8,2.2,0,4-1.5,5.6c-1.6,1.7-3.4,2.8-5.5,3.4C69.9,91,63.5,92.3,56.9,92
			c-3.8-0.2-7.7-1.3-11.5-2c-3.4-0.7-6.9-1.5-10.3-2.2c-0.5-0.1-1.4,0.1-1.6,0.4c-0.7,1.2-1.7,1.5-3,1.5c-5.2,0-10.5,0-15.7,0
			c-2.2,0-3.1-0.9-3.1-3.1c0-5.8,0-11.5,0-17.3C11.7,66.5,11.7,63.6,11.6,60.6z M49.8,85.6c5.5,1.4,10.9,1.3,16.3,0.3
			c2.6-0.4,5.2-1,7.8-1.5c0.6-0.2,1.3-0.4,1.9-0.7c2.4-1.1,2.6-1.6,2.1-4c-0.5-1.9-0.2-3.7,1.2-5.2c0.2-0.2,0.3-0.4,0.4-0.5
			c1.7-1.6,2.1-3.4,0.9-5.5c-0.8-1.3-0.5-2.7,0.4-3.9c0.6-0.8,1.1-1.7,1.8-2.4c0.9-1,0.9-2,0.2-3c-0.4-0.7-0.8-1.4-1.2-2.1
			c-0.8-1.3-0.8-2.6-0.1-4c0.6-1.1,1.2-2.1,1.6-3.3c0.2-0.6,0.2-1.5-0.1-2.1c-1.1-2.4-3.1-3.6-5.8-3.6c-4.5,0-8.9-0.1-13.4-0.1
			c-2.6,0-4.9-0.7-6.8-2.5c-1.3-1.3-1.8-2.8-1.2-4.4c0.5-1.4,1.2-2.8,1.9-4.2c0.7-1.4,1.6-2.7,2.4-4c2.7-4.4,2.6-10-0.3-14.2
			c-0.1-0.2-0.2-0.3-0.3-0.4c-0.4-0.3-0.8-0.6-1.2-0.9c-0.2,0.4-0.5,0.8-0.6,1.3c-0.5,3.5-1.2,7-2.6,10.3c-1.1,2.5-2.5,4.7-4.5,6.5
			c-0.7,0.7-1.4,1.5-2.2,2.2c-2.5,2.3-4.2,5-5.4,8.2c-1,2.9-2.3,5.8-3.9,8.4c-1.2,1.8-3.1,3.1-4.7,4.7c-0.3,0.3-0.7,0.8-0.7,1.2
			c0,8.6,0,17.1,0,25.7c0,0.1,0.1,0.3,0.1,0.6C39.4,82.5,44.6,84.3,49.8,85.6z M28.4,84.4c0-10.2,0-20.2,0-30.4c-3.8,0-7.7,0-11.6,0
			c0,10.2,0,20.2,0,30.4C20.7,84.4,24.5,84.4,28.4,84.4z"/>
	</g>
</g>
</svg>
