<?xml version="1.0" encoding="utf-8"?>
<!-- Generator: Adobe Illustrator 19.0.0, SVG Export Plug-In . SVG Version: 6.00 Build 0)  -->
<!DOCTYPE svg PUBLIC "-//W3C//DTD SVG 1.1//EN" "http://www.w3.org/Graphics/SVG/1.1/DTD/svg11.dtd">
<svg version="1.1" id="Layer_1" xmlns="http://www.w3.org/2000/svg" xmlns:xlink="http://www.w3.org/1999/xlink" x="0px" y="0px"
	 viewBox="0 0 150 100" style="enable-background:new 0 0 150 100;" xml:space="preserve">
<style type="text/css">
	.st0{fill:#F36D32;}
</style>
<g id="_x31_8mntu.tif">
	<g id="XMLID_27_">
		<path id="XMLID_1007_" class="st0" d="M136.4,11.1c1.5,0,2.9,0,4.5,0c0,1.5,0,3,0,4.6c-1.5,0-2.9,0-4.5,0
			C136.4,14.2,136.4,12.8,136.4,11.1z"/>
		<path id="XMLID_1006_" class="st0" d="M114.7,11.1c-0.3,1.7-0.1,3.5-0.9,4.5c-0.5,0.6-3.2,0.6-3.7-0.1c-0.8-1-0.5-2.8-0.7-4.4
			C111.3,11.1,112.7,11.1,114.7,11.1z"/>
		<path id="XMLID_1005_" class="st0" d="M93.3,11c2.1,0,3.5,0,5.3,0c-0.2,1.6,0,3.4-0.8,4.6c-0.3,0.6-3.1,0.6-3.5,0.1
			C93.6,14.6,93.7,12.8,93.3,11z"/>
		<path id="XMLID_1004_" class="st0" d="M56.3,11.2c-0.3,1.7-0.2,3.5-1.1,4.5c-0.5,0.6-3.1,0.6-3.5,0c-0.8-1-0.6-2.8-0.9-4.5
			C52.7,11.2,54.2,11.2,56.3,11.2z"/>
		<path id="XMLID_1003_" class="st0" d="M40.2,11.1c-0.2,1.6,0.1,3.4-0.7,4.4c-0.5,0.7-3.2,0.7-3.7,0c-0.8-1-0.6-2.8-0.8-4.4
			C36.7,11.1,38.1,11.1,40.2,11.1z"/>
		<path id="XMLID_1002_" class="st0" d="M8.4,11.1c1-0.1,1.5-0.1,2-0.2c0.9,0,1.9,0,3.3,0c-0.2,1.7-0.1,3.5-0.8,4.7
			c-0.4,0.6-3.1,0.6-3.5,0C8.5,14.5,8.6,12.8,8.4,11.1z"/>
		<path id="XMLID_1001_" class="st0" d="M130.3,74.3c-1.5,0-2.8,0-4.4,0c0-1.5,0-2.9,0-4.4C130.3,68.7,130.7,69.1,130.3,74.3z"/>
		<path id="XMLID_1000_" class="st0" d="M39.5,48.1c-1.4-0.4-3.2-0.4-4.2-1.3c-0.5-0.5-0.3-2.8,0.3-3.4c0.7-0.7,3-0.8,3.5-0.3
			c0.8,1,0.8,2.8,1.2,4.2C40,47.6,39.7,47.9,39.5,48.1z"/>
		<path id="XMLID_999_" class="st0" d="M77.9,74.1c-0.5-4.9-0.4-5,4.2-4.4C83.4,74.2,82.5,75.2,77.9,74.1z"/>
		<path id="XMLID_998_" class="st0" d="M71.8,42.9c0,2,0,3.3,0,4.7c-1.5,0-2.9,0-4.7,0c0.1-1.4-0.3-3.4,0.4-4.2
			C68.3,42.7,70.3,43,71.8,42.9z"/>
		<path id="XMLID_997_" class="st0" d="M77.9,43.3c4.4-1.2,5.3-0.2,4.2,4.4c-0.5,0-1,0.1-1.5,0.1c-0.8,0-1.7,0-2.8,0
			C77.9,46.3,77.9,44.9,77.9,43.3z"/>
		<path id="XMLID_996_" class="st0" d="M71.9,29.5c0.5,2.2-0.7,2.5-2.5,2.6c-2.1,0.1-2.3-0.9-2.3-2.6c0-1.8,0.4-2.6,2.4-2.6
			C71.4,26.9,72.3,27.4,71.9,29.5z"/>
		<path id="XMLID_995_" class="st0" d="M93.8,32.2c0-2,0-3.3,0-5.2c1.6,0.2,3.3,0,4.5,0.7c0.6,0.3,0.6,3,0,3.5
			C97.3,31.9,95.5,31.8,93.8,32.2z"/>
		<path id="XMLID_994_" class="st0" d="M114.4,29.5c0.4,1.9-0.5,2.5-2.3,2.5c-2.1,0.1-2.6-0.7-2.6-2.7c0-1.9,0.5-2.5,2.5-2.5
			C114,26.8,114.9,27.5,114.4,29.5z"/>
		<path id="XMLID_993_" class="st0" d="M136.4,85.6c1.5,0,2.8,0,4.4,0c0,1.5,0,3,0,4.4C136.1,90.9,135.7,90.5,136.4,85.6z"/>
		<path id="XMLID_992_" class="st0" d="M112,85.6c1.9-0.4,2.5,0.3,2.6,2.3c0,2.1-0.7,2.6-2.6,2.6c-2,0-2.5-0.7-2.4-2.5
			C109.5,86,110.1,85.1,112,85.6z"/>
		<path id="XMLID_991_" class="st0" d="M109.4,47.4c0.3-1.5,0.3-3.2,1.1-4.2c0.4-0.6,2.8-0.5,3.5,0.2c0.7,0.6,0.9,3,0.4,3.4
			c-1,0.9-2.7,1-4.2,1.4C109.9,47.9,109.7,47.7,109.4,47.4z"/>
		<path id="XMLID_990_" class="st0" d="M93.4,58c0.3-1.4,0.1-3.2,0.9-4.1c0.6-0.6,2.9-0.5,3.7,0.2c0.7,0.5,0.8,3,0.3,3.4
			c-1,0.9-2.8,0.9-4.2,1.2C93.9,58.5,93.7,58.2,93.4,58z"/>
		<path id="XMLID_989_" class="st0" d="M35.2,72c-0.5-2.1,0.5-2.5,2.3-2.6c2.1-0.1,2.5,0.7,2.5,2.7c0,1.9-0.6,2.5-2.5,2.5
			C35.6,74.6,34.6,74,35.2,72z"/>
		<path id="XMLID_988_" class="st0" d="M56.3,74.3c-2.1,0-3.5,0-5.4,0c0.2-1.6,0-3.4,0.7-4.4c0.4-0.6,3-0.7,3.5-0.1
			C56,70.7,55.9,72.5,56.3,74.3z"/>
		<path id="XMLID_987_" class="st0" d="M114.4,72.1c0.4,2-0.5,2.4-2.4,2.5c-2.1,0.1-2.6-0.7-2.5-2.7c0-1.9,0.6-2.5,2.5-2.5
			C114.1,69.4,114.8,70.1,114.4,72.1z"/>
		<path id="XMLID_986_" class="st0" d="M96.1,90.3c-1.9,0.4-2.5-0.4-2.5-2.3c-0.1-2.1,0.7-2.5,2.7-2.6c2,0,2.4,0.8,2.4,2.6
			C98.6,89.9,98,90.8,96.1,90.3z"/>
		<path id="XMLID_985_" class="st0" d="M8.2,90.8c0.5-2.2,0.3-4.1,1.2-5c0.5-0.6,2.9-0.4,3.7,0.3c0.6,0.5,0.7,3,0.2,3.5
			C12.2,90.3,10.4,90.3,8.2,90.8z"/>
		<path id="XMLID_984_" class="st0" d="M39.5,90.7c-1.4-0.4-3.2-0.4-4.2-1.2c-0.6-0.5-0.4-2.9,0.2-3.4c0.9-0.7,3.1-0.9,3.7-0.2
			c0.8,0.9,0.7,2.7,1,4.1C40,90.1,39.7,90.4,39.5,90.7z"/>
		<path id="XMLID_983_" class="st0" d="M53.6,85.6c2-0.4,2.4,0.5,2.5,2.4c0.1,2.2-0.9,2.5-2.7,2.5c-2.1,0.1-2.3-0.9-2.4-2.6
			C51,85.9,51.7,85.2,53.6,85.6z"/>
		<path id="XMLID_982_" class="st0" d="M50.3,90.2c-1.4,0-2.7,0-4.3,0c0-1.5,0-3,0-4.6c1.4,0,2.7,0,4.3,0
			C50.3,87.2,50.3,88.6,50.3,90.2z"/>
		<path id="XMLID_981_" class="st0" d="M40.8,85.7c1.5,0,2.9,0,4.4,0c0,1.6,0,2.9,0,4.5c-1.5,0-2.8,0-4.4,0
			C40.8,88.7,40.8,87.3,40.8,85.7z"/>
		<path id="XMLID_980_" class="st0" d="M34.5,85.7c0,1.6,0,3,0,4.6c-1.5,0-2.8,0-4.3,0c0-1.5,0-2.9,0-4.6
			C31.5,85.7,32.8,85.7,34.5,85.7z"/>
		<path id="XMLID_979_" class="st0" d="M39.9,32.6c0,1.4,0,2.8,0,4.4c-1.5,0-2.9,0-4.5,0c0-1.4,0-2.8,0-4.4
			C36.8,32.6,38.2,32.6,39.9,32.6z"/>
		<path id="XMLID_978_" class="st0" d="M51.5,32.5c1.4,0,2.8,0,4.4,0c0,1.5,0,2.9,0,4.2C51.2,37.8,50.3,37,51.5,32.5z"/>
		<path id="XMLID_977_" class="st0" d="M39.9,64.5c0,1.4,0,2.8,0,4.4c-1.5,0-2.9,0-4.5,0c0-1.4,0-2.8,0-4.4
			C36.8,64.5,38.2,64.5,39.9,64.5z"/>
		<path id="XMLID_976_" class="st0" d="M18.5,85.7c0,1.6,0,3,0,4.6c-1.5,0-2.8,0-4.3,0c0-1.5,0-3,0-4.6
			C15.6,85.7,16.9,85.7,18.5,85.7z"/>
		<path id="XMLID_975_" class="st0" d="M46,11.1c1.5,0,2.8,0,4.3,0c0,1.5,0,3,0,4.6c-1.4,0-2.7,0-4.3,0C46,14.3,46,12.8,46,11.1z"/>
		<path id="XMLID_974_" class="st0" d="M35.3,58.2c-0.6-4.8-0.5-5,4.5-4.4c0.1,0.7,0.1,1.4,0.2,2.2c0,0.7,0,1.3,0,2.2
			C38.4,58.2,36.9,58.2,35.3,58.2z"/>
		<path id="XMLID_973_" class="st0" d="M109.8,75.1c1.6,0,3,0,4.5,0c0,1.5,0,2.9,0,4.4c-1.5,0-2.9,0-4.5,0
			C109.8,78.2,109.8,76.8,109.8,75.1z"/>
		<path id="XMLID_972_" class="st0" d="M30,58.3c0-1.6,0-2.9,0-4.5c1.5,0,2.9,0,4.4,0c0,1.4,0,2.8,0,4.5C33,58.3,31.6,58.3,30,58.3z
			"/>
		<path id="XMLID_971_" class="st0" d="M109.7,36.9c0-0.9-0.1-1.7-0.1-2.4c0-0.6,0.1-1.2,0.1-1.9c1.6,0,3,0,4.5,0
			C115.1,37.2,114.7,37.6,109.7,36.9z"/>
		<path id="XMLID_970_" class="st0" d="M146.3,69.9c0,1.5,0,2.8,0,4.4c-1.5,0-2.8,0-4.2,0C140.7,69.8,141.5,68.9,146.3,69.9z"/>
		<path id="XMLID_969_" class="st0" d="M56.6,15.7c0-1.6,0-3.1,0-4.6c1.5,0,2.9,0,4.4,0c0,1.5,0,3,0,4.6
			C59.7,15.7,58.3,15.7,56.6,15.7z"/>
		<path id="XMLID_968_" class="st0" d="M67.4,11.1c1.4,0,2.8,0,4.2,0c1.1,4.7,0.9,5-4.2,4.7C67.4,14.3,67.4,12.8,67.4,11.1z"/>
		<path id="XMLID_967_" class="st0" d="M61.9,69.6c1.5,0,2.8,0,4.4,0c0,1.5,0,3,0,4.6c-1.4,0-2.8,0-4.4,0
			C61.9,72.8,61.9,71.4,61.9,69.6z"/>
		<path id="XMLID_966_" class="st0" d="M51.3,68.8c0-1.5,0-2.9,0-4.4c1.6,0,3,0,4.6,0c0,1.4,0,2.8,0,4.4
			C54.3,68.8,52.9,68.8,51.3,68.8z"/>
		<path id="XMLID_965_" class="st0" d="M72.6,15.7c0-1.7,0-3.1,0-4.6c1.5,0,2.9,0,4.4,0c0,1.5,0,3,0,4.6
			C75.6,15.7,74.2,15.7,72.6,15.7z"/>
		<path id="XMLID_964_" class="st0" d="M98.3,68.9c-1.8,0-3.1,0-4.6,0c0-1.5,0-2.9,0-4.4c1.6,0,3,0,4.6,0
			C98.3,65.9,98.3,67.4,98.3,68.9z"/>
		<path id="XMLID_963_" class="st0" d="M109.8,64.5c5-0.5,5.1-0.4,4.5,4.3c-1.4,0-2.9,0-4.5,0C109.8,67.4,109.8,66,109.8,64.5z"/>
		<path id="XMLID_962_" class="st0" d="M7.8,74.4c-1.5,0-2.8,0-4.3,0c0-1.6,0-3.1,0-4.7c1.4,0,2.8,0,4.3,0
			C7.8,71.1,7.8,72.6,7.8,74.4z"/>
		<path id="XMLID_961_" class="st0" d="M18.5,74.4c-1.5,0-2.8,0-4.3,0c0-1.6,0-3.1,0-4.7c1.4,0,2.8,0,4.3,0
			C18.5,71.1,18.5,72.6,18.5,74.4z"/>
		<path id="XMLID_960_" class="st0" d="M3.4,47.7c0-1.6,0-3,0-4.6c1.5,0,2.9,0,4.5,0c0,1.6,0,3,0,4.6C6.4,47.7,5,47.7,3.4,47.7z"/>
		<path id="XMLID_959_" class="st0" d="M135.5,43.2c0,1.7,0,3.1,0,4.5c-1.5,0-2.9,0-4.4,0c0-1.5,0-2.9,0-4.5
			C132.6,43.2,134,43.2,135.5,43.2z"/>
		<path id="XMLID_958_" class="st0" d="M34.4,43.2c0,1.7,0,3.1,0,4.5c-1.5,0-2.8,0-4.3,0c0-1.5,0-2.9,0-4.5
			C31.5,43.2,33,43.2,34.4,43.2z"/>
		<path id="XMLID_957_" class="st0" d="M115.2,15.7c0-1.5,0-2.9,0-4.6c1.4,0,2.8,0,4.4,0c0,1.4,0,2.9,0,4.6
			C118.1,15.7,116.7,15.7,115.2,15.7z"/>
		<path id="XMLID_956_" class="st0" d="M115.2,47.6c0-1.5,0-3,0-4.5c1.5,0,2.8,0,4.3,0c0,1.5,0,2.9,0,4.5
			C118.2,47.6,116.8,47.6,115.2,47.6z"/>
		<path id="XMLID_955_" class="st0" d="M104.4,11.1c1.6,0,3,0,4.4,0c0,1.6,0,3.1,0,4.6c-1.5,0-2.9,0-4.4,0
			C104.4,14.2,104.4,12.8,104.4,11.1z"/>
		<path id="XMLID_954_" class="st0" d="M103.7,11.2c0,1.5,0,2.9,0,4.5c-1.4,0-2.9,0-4.5,0c0-1.5,0-2.9,0-4.5
			C100.7,11.2,102.1,11.2,103.7,11.2z"/>
		<path id="XMLID_953_" class="st0" d="M88.5,15.7c0-1.5,0-3,0-4.6c1.4,0,2.8,0,4.4,0c0,1.4,0,2.9,0,4.6
			C91.5,15.7,90.1,15.7,88.5,15.7z"/>
		<path id="XMLID_952_" class="st0" d="M18.5,15.8c-1.5,0-2.8,0-4.3,0c0-1.5,0-3,0-4.6c1.3,0,2.7,0,4.3,0
			C18.5,12.6,18.5,14,18.5,15.8z"/>
		<path id="XMLID_951_" class="st0" d="M131.1,90.2c0-1.5,0-2.9,0-4.5c1.5,0,2.9,0,4.4,0c0,1.5,0,2.9,0,4.5
			C134.1,90.2,132.8,90.2,131.1,90.2z"/>
		<path id="XMLID_950_" class="st0" d="M115.2,90.2c0-1.6,0-3,0-4.6c1.5,0,2.8,0,4.3,0c0,1.5,0,2.9,0,4.6
			C118.1,90.2,116.8,90.2,115.2,90.2z"/>
		<path id="XMLID_949_" class="st0" d="M108.9,85.7c0,1.6,0,3,0,4.6c-1.5,0-2.8,0-4.4,0c0-1.5,0-3,0-4.6
			C105.9,85.7,107.3,85.7,108.9,85.7z"/>
		<path id="XMLID_948_" class="st0" d="M35.3,21.8c1.7,0,3,0,4.5,0c0,1.5,0,2.8,0,4.4c-1.4,0-2.9,0-4.5,0
			C35.3,24.8,35.3,23.3,35.3,21.8z"/>
		<path id="XMLID_947_" class="st0" d="M103.7,90.2c-1.5,0-2.8,0-4.4,0c0-1.5,0-2.9,0-4.5c1.4,0,2.8,0,4.4,0
			C103.7,87.2,103.7,88.7,103.7,90.2z"/>
		<path id="XMLID_946_" class="st0" d="M51.2,26.2c0-1.5,0-2.8,0-4.1c4.8-1.1,5.2-0.7,4.6,4.1C54.4,26.2,52.9,26.2,51.2,26.2z"/>
		<path id="XMLID_945_" class="st0" d="M88.6,85.7c1.4,0,2.7,0,4.2,0c0,1.5,0,2.9,0,4.6c-1.4,0-2.7,0-4.2,0
			C88.6,88.8,88.6,87.3,88.6,85.7z"/>
		<path id="XMLID_944_" class="st0" d="M109.7,26.2c0-1.5,0-2.9,0-4.3c1.5,0,2.9,0,4.6,0c0,1.4,0,2.7,0,4.3
			C112.9,26.2,111.4,26.2,109.7,26.2z"/>
		<path id="XMLID_943_" class="st0" d="M77,85.7c0,1.5,0,2.9,0,4.5c-1.4,0-2.8,0-4.4,0c0-1.4,0-2.9,0-4.5
			C74.1,85.7,75.5,85.7,77,85.7z"/>
		<path id="XMLID_942_" class="st0" d="M67.3,85.3c1.6,0.2,3.3,0.1,4.4,0.8c0.6,0.4,0.6,3,0,3.5c-1,0.8-2.7,0.7-4.4,1
			C67.3,88.7,67.3,87.2,67.3,85.3z"/>
		<path id="XMLID_941_" class="st0" d="M66.4,90.3c-1.6,0-2.9,0-4.4,0c0-1.5,0-2.9,0-4.5c1.4,0,2.8,0,4.4,0
			C66.4,87.2,66.4,88.6,66.4,90.3z"/>
		<path id="XMLID_940_" class="st0" d="M61.1,90.2c-1.5,0-2.8,0-4.3,0c0-1.5,0-2.9,0-4.6c1.5,0,2.9,0,4.3,0
			C61.1,87.3,61.1,88.7,61.1,90.2z"/>
		<path id="XMLID_939_" class="st0" d="M145.9,32.1c-1.4-0.3-3.2-0.1-4-1c-0.6-0.7-0.5-2.8,0.2-3.8c0.5-0.6,3-0.8,3.4-0.3
			c0.8,1.1,0.8,2.8,1.2,4.3C146.4,31.6,146.2,31.9,145.9,32.1z"/>
		<path id="XMLID_938_" class="st0" d="M103.7,26.8c0,1.9,0,3.3,0,5.3c-1.6-0.2-3.4,0-4.3-0.8c-0.7-0.6-0.7-3.1,0-3.7
			C100.3,26.8,102.1,27,103.7,26.8z"/>
		<path id="XMLID_937_" class="st0" d="M88.5,58.3c0-1.6,0-2.9,0-4.5c1.5,0,2.9,0,4.4,0c0,1.4,0,2.8,0,4.5
			C91.5,58.3,90.1,58.3,88.5,58.3z"/>
		<path id="XMLID_936_" class="st0" d="M87.7,27.2c0,1.6,0,2.9,0,4.5c-1.5,0-2.8,0-4.4,0c0-1.5,0-2.9,0-4.5
			C84.8,27.2,86.2,27.2,87.7,27.2z"/>
		<path id="XMLID_935_" class="st0" d="M135.6,11.2c0,1.5,0,2.9,0,4.5c-1.4,0-2.8,0-4.4,0c0-1.4,0-2.9,0-4.5
			C132.5,11.2,133.9,11.2,135.6,11.2z"/>
		<path id="XMLID_934_" class="st0" d="M30,15.8c0-1.6,0-3,0-4.6c1.4,0,2.8,0,4.4,0c0,1.5,0,3,0,4.6C33,15.8,31.6,15.8,30,15.8z"/>
		<path id="XMLID_933_" class="st0" d="M46,31.8c-0.5-5-0.4-5.2,4.3-4.6c0,1.4,0,2.9,0,4.6C49,31.8,47.6,31.8,46,31.8z"/>
		<path id="XMLID_932_" class="st0" d="M7.8,31.8c-1.5,0-2.8,0-4.3,0c0-1.6,0-3.1,0-4.5C8,26.3,8.4,26.8,7.8,31.8z"/>
		<path id="XMLID_931_" class="st0" d="M18.5,31.8c-1.6,0-2.9,0-4.4,0c0-1.6,0-3.1,0-4.7c1.5,0,2.9,0,4.4,0
			C18.5,28.7,18.5,30.1,18.5,31.8z"/>
		<path id="XMLID_930_" class="st0" d="M83.3,58.3c0-1.5,0-2.9,0-4.5c1.4,0,2.8,0,4.4,0c0,1.4,0,2.9,0,4.5
			C86.2,58.3,84.8,58.3,83.3,58.3z"/>
		<path id="XMLID_929_" class="st0" d="M39.9,59.3c0,1.5,0,2.8,0,4.1c-4.6,1.2-5,0.8-4.6-4.1C36.7,59.3,38.2,59.3,39.9,59.3z"/>
		<path id="XMLID_928_" class="st0" d="M71.9,59.2c0,1.6,0,2.9,0,4.4c-1.5,0-3,0-4.6,0c0-1.5,0-2.9,0-4.4
			C68.8,59.2,70.2,59.2,71.9,59.2z"/>
		<path id="XMLID_927_" class="st0" d="M77.8,63.6c0-1.5,0-2.8,0-4.4c1.5,0,2.9,0,4.5,0c0,1.5,0,2.9,0,4.4
			C80.8,63.6,79.4,63.6,77.8,63.6z"/>
		<path id="XMLID_926_" class="st0" d="M120.4,47.7c-0.1-0.7-0.1-1.2-0.1-1.7c0-0.8,0-1.7,0-2.8c1.6,0,3,0,4.6,0c0,1.5,0,2.9,0,4.4
			C123.4,47.7,122,47.7,120.4,47.7z"/>
		<path id="XMLID_925_" class="st0" d="M130.2,47.7c-1.5,0-2.8,0-4.3,0c0-1.6,0-3,0-4.4C130.5,42.4,130.9,42.9,130.2,47.7z"/>
		<path id="XMLID_924_" class="st0" d="M109.9,63.6c-0.7-4.8-0.2-5.2,4.3-4.2C115,63.9,114.6,64.3,109.9,63.6z"/>
		<path id="XMLID_923_" class="st0" d="M24.8,53.7c1.5,0,2.9,0,4.4,0c0,1.5,0,2.9,0,4.5c-1.4,0-2.8,0-4.4,0
			C24.8,56.8,24.8,55.3,24.8,53.7z"/>
		<path id="XMLID_922_" class="st0" d="M146.2,48.2c-1.7-0.4-3.5-0.3-4.4-1.1c-0.6-0.5-0.6-3,0.1-3.5c1-0.8,2.7-0.6,4.3-0.8
			C146.2,44.7,146.2,46.1,146.2,48.2z"/>
		<path id="XMLID_921_" class="st0" d="M67.5,53.7c1.4,0,2.8,0,4.3,0c0,1.5,0,2.9,0,4.3C67.2,59.1,66.4,58.3,67.5,53.7z"/>
		<path id="XMLID_920_" class="st0" d="M130.3,53.9c0,1.4,0,2.8,0,4.3c-1.5,0-2.9,0-4.5,0c0-1.3,0-2.7,0-4.3
			C127.2,53.9,128.6,53.9,130.3,53.9z"/>
		<path id="XMLID_919_" class="st0" d="M87.7,15.8c-1.5,0-2.9,0-4.5,0c0-1.6,0-3,0-4.6c1.5,0,2.9,0,4.5,0
			C87.7,12.7,87.7,14.1,87.7,15.8z"/>
		<path id="XMLID_918_" class="st0" d="M124.8,53.8c0,1.5,0,2.9,0,4.5c-1.5,0-2.9,0-4.5,0c0-1.5,0-2.9,0-4.5
			C121.9,53.8,123.3,53.8,124.8,53.8z"/>
		<path id="XMLID_917_" class="st0" d="M115.2,58.2c0-1.5,0-2.9,0-4.5c1.5,0,2.8,0,4.3,0c0,1.4,0,2.8,0,4.5
			C118.2,58.2,116.8,58.2,115.2,58.2z"/>
		<path id="XMLID_916_" class="st0" d="M99.2,58.2c0-1.5,0-2.9,0-4.4c1.5,0,2.9,0,4.4,0c0,1.4,0,2.8,0,4.4
			C102.3,58.2,100.9,58.2,99.2,58.2z"/>
		<path id="XMLID_915_" class="st0" d="M19.3,53.7c0.9-0.1,1.6-0.1,2.2-0.1c0.7,0,1.3,0,2.2,0c0,1.7,0,3.1,0,4.7c-1.5,0-2.9,0-4.4,0
			C19.3,56.8,19.3,55.4,19.3,53.7z"/>
		<path id="XMLID_914_" class="st0" d="M130.2,90.2c-4.8,0.6-5.2,0.2-4.2-4.3C130.5,85,131,85.4,130.2,90.2z"/>
		<path id="XMLID_913_" class="st0" d="M124.8,85.7c0,1.5,0,2.9,0,4.5c-1.4,0-2.8,0-4.4,0c0-1.4,0-2.9,0-4.5
			C121.9,85.7,123.3,85.7,124.8,85.7z"/>
		<path id="XMLID_912_" class="st0" d="M19.3,15.7c0-1.6,0-3,0-4.5c1.5,0,3,0,4.5,0c0,1.5,0,2.9,0,4.5
			C22.3,15.7,20.9,15.7,19.3,15.7z"/>
		<path id="XMLID_911_" class="st0" d="M29.3,11.2c0.4,5.2,0.2,5.3-4.5,4.4c0-1.4,0-2.8,0-4.4C26.2,11.2,27.7,11.2,29.3,11.2z"/>
		<path id="XMLID_910_" class="st0" d="M87.8,85.7c0,1.6,0,3,0,4.5c-1.5,0-2.9,0-4.5,0c0-1.5,0-3,0-4.5
			C84.9,85.7,86.3,85.7,87.8,85.7z"/>
		<path id="XMLID_909_" class="st0" d="M82.4,21.9c0.1,0.8,0.1,1.5,0.1,2.2c0,0.7-0.1,1.3-0.1,2.2c-1.5,0-2.9,0-4.5,0
			c0-1.4,0-2.8,0-4.4C79.3,21.9,80.7,21.9,82.4,21.9z"/>
		<path id="XMLID_908_" class="st0" d="M77.9,85.9c4.4-1.1,5.2-0.3,4.2,4.2C77.6,90.9,77.2,90.5,77.9,85.9z"/>
		<path id="XMLID_907_" class="st0" d="M125.8,15.7c0-1.5,0-2.9,0-4.5c1.5,0,2.9,0,4.4,0C131,16,130.8,16.2,125.8,15.7z"/>
		<path id="XMLID_906_" class="st0" d="M120.3,15.6c0-1.5,0-2.9,0-4.5c1.5,0,2.9,0,4.5,0c0,1.4,0,2.8,0,4.5
			C123.5,15.6,122.1,15.6,120.3,15.6z"/>
		<path id="XMLID_905_" class="st0" d="M45.2,11.2c0,1.5,0,2.9,0,4.5c-1.5,0-2.9,0-4.5,0c0-1.5,0-2.9,0-4.5
			C42.2,11.2,43.6,11.2,45.2,11.2z"/>
		<path id="XMLID_904_" class="st0" d="M29.3,85.7c0,1.6,0,3,0,4.5c-1.5,0-2.9,0-4.5,0c0-1.5,0-2.9,0-4.5
			C26.2,85.7,27.6,85.7,29.3,85.7z"/>
		<path id="XMLID_903_" class="st0" d="M19.3,85.7c1.5,0,2.9,0,4.4,0c0,1.5,0,3,0,4.5c-1.5,0-2.9,0-4.4,0
			C19.3,88.7,19.3,87.3,19.3,85.7z"/>
		<path id="XMLID_902_" class="st0" d="M77.8,37c0-1.5,0-2.8,0-4.3c1.5,0,2.9,0,4.5,0c0,1.4,0,2.7,0,4.3C80.9,37,79.5,37,77.8,37z"
			/>
		<path id="XMLID_901_" class="st0" d="M93.3,79.6c0.4-1.8,0.3-3.5,1.2-4.4c0.6-0.6,3-0.5,3.5,0.1c0.7,1,0.6,2.7,0.8,4.3
			C96.8,79.6,95.4,79.6,93.3,79.6z"/>
		<path id="XMLID_900_" class="st0" d="M39.8,79.6c-1.5,0-2.9,0-4.5,0c0-1.5,0-2.9,0-4.4c1.5,0,2.9,0,4.5,0
			C39.8,76.6,39.8,78,39.8,79.6z"/>
		<path id="XMLID_899_" class="st0" d="M61.9,11.1c1.6,0,2.9,0,4.4,0c0,1.6,0,3,0,4.7c-1.4,0-2.8,0-4.4,0
			C61.9,14.2,61.9,12.7,61.9,11.1z"/>
		<path id="XMLID_898_" class="st0" d="M35.3,37.8c1.5,0,2.9,0,4.5,0c0,1.4,0,2.8,0,4.4c-1.5,0-2.9,0-4.5,0
			C35.3,40.7,35.3,39.3,35.3,37.8z"/>
		<path id="XMLID_897_" class="st0" d="M71.8,42.2c-1.5,0-2.9,0-4.5,0c0-1.5,0-2.9,0-4.5c1.5,0,2.9,0,4.5,0
			C71.8,39.3,71.8,40.7,71.8,42.2z"/>
		<path id="XMLID_896_" class="st0" d="M77.8,37.8c1.6,0,3,0,4.5,0c0,1.5,0,3,0,4.5c-1.6,0-3,0-4.5,0C77.8,40.8,77.8,39.5,77.8,37.8
			z"/>
		<path id="XMLID_895_" class="st0" d="M77.8,15.7c0-1.8,0-3.1,0-4.6c1.5,0,2.9,0,4.5,0c0,1.5,0,3,0,4.6
			C80.8,15.7,79.3,15.7,77.8,15.7z"/>
		<path id="XMLID_894_" class="st0" d="M114.4,37.8c0,1.7,0,3,0,4.5c-1.5,0-2.9,0-4.5,0c0-1.5,0-2.9,0-4.5
			C111.4,37.8,112.8,37.8,114.4,37.8z"/>
		<path id="XMLID_893_" class="st0" d="M18.5,47.7c-1.5,0-2.9,0-4.4,0c0-1.5,0-2.9,0-4.6c1.4,0,2.8,0,4.4,0
			C18.5,44.6,18.5,46.1,18.5,47.7z"/>
		<path id="XMLID_892_" class="st0" d="M23.8,47.7c-1.5,0-2.8,0-4.4,0c0-1.5,0-2.9,0-4.6c1.4,0,2.8,0,4.4,0
			C23.8,44.7,23.8,46.1,23.8,47.7z"/>
		<path id="XMLID_891_" class="st0" d="M24.8,47.7c0-1.5,0-2.9,0-4.5c1.5,0,2.8,0,4.2,0C30.2,47.6,29.8,48.1,24.8,47.7z"/>
		<path id="XMLID_890_" class="st0" d="M46,43.1c1.5,0,2.8,0,4.3,0c0,1.6,0,3,0,4.6c-1.5,0-2.8,0-4.3,0C46,46.2,46,44.8,46,43.1z"/>
		<path id="XMLID_889_" class="st0" d="M99.2,47.6c0-1.5,0-2.9,0-4.5c1.5,0,2.9,0,4.4,0c0,1.5,0,2.9,0,4.5
			C102.3,47.6,100.9,47.6,99.2,47.6z"/>
		<path id="XMLID_888_" class="st0" d="M82.4,29.5c0.3,1.8-0.3,2.5-2.3,2.6c-2.2,0-2.5-0.9-2.5-2.7c0-2,0.7-2.4,2.5-2.5
			C82.1,26.8,82.8,27.6,82.4,29.5z"/>
		<path id="XMLID_887_" class="st0" d="M109.2,53.2c2.3,0.5,4,0.4,5.1,1.2c0.6,0.4,0.5,2.9-0.2,3.4c-0.8,0.7-3.1,0.9-3.7,0.3
			C109.6,57.2,109.7,55.4,109.2,53.2z"/>
		<path id="XMLID_886_" class="st0" d="M82.3,58.3c-1.5,0-2.9,0-4.4,0c0-1.5,0-2.9,0-4.5c1.4,0,2.8,0,4.4,0
			C82.3,55.2,82.3,56.6,82.3,58.3z"/>
		<path id="XMLID_885_" class="st0" d="M7.9,53.7c0,1.6,0,2.9,0,4.5c-1.5,0-3,0-4.5,0c0-1.5,0-2.9,0-4.5C4.9,53.7,6.3,53.7,7.9,53.7
			z"/>
		<path id="XMLID_884_" class="st0" d="M71.8,32.6c0,1.5,0,2.9,0,4.4c-1.5,0-2.9,0-4.5,0c0-1.4,0-2.8,0-4.4
			C68.7,32.6,70.1,32.6,71.8,32.6z"/>
		<path id="XMLID_883_" class="st0" d="M67.2,26.3c0-1.5,0-2.8,0-4.4c1.5,0,2.9,0,4.5,0c0,1.4,0,2.8,0,4.4
			C70.3,26.3,68.9,26.3,67.2,26.3z"/>
		<path id="XMLID_882_" class="st0" d="M14.1,37c0-1.5,0-2.8,0-4.3c1.4,0,2.8,0,4.4,0c0,1.3,0,2.7,0,4.3C17.1,37,15.8,37,14.1,37z"
			/>
		<path id="XMLID_881_" class="st0" d="M29.3,32.6c0,1.6,0,2.9,0,4.4c-1.5,0-2.9,0-4.5,0c0-1.4,0-2.8,0-4.4
			C26.2,32.6,27.6,32.6,29.3,32.6z"/>
		<path id="XMLID_880_" class="st0" d="M30,32.6c1.5,0,2.9,0,4.4,0c0,1.5,0,2.9,0,4.5c-1.5,0-2.9,0-4.4,0C30,35.5,30,34.1,30,32.6z"
			/>
		<path id="XMLID_879_" class="st0" d="M45.9,37c0-1.5,0-2.8,0-4.4c1.5,0,2.8,0,4.4,0c0,1.4,0,2.8,0,4.4C49,37,47.6,37,45.9,37z"/>
		<path id="XMLID_878_" class="st0" d="M56.8,32.5c1.5,0,2.9,0,4.3,0c0,1.5,0,2.9,0,4.5c-1.4,0-2.8,0-4.3,0
			C56.8,35.5,56.8,34,56.8,32.5z"/>
		<path id="XMLID_877_" class="st0" d="M66.4,32.6c0,1.5,0,2.8,0,4.4c-1.5,0-2.9,0-4.5,0c0-1.5,0-2.8,0-4.4
			C63.3,32.6,64.6,32.6,66.4,32.6z"/>
		<path id="XMLID_876_" class="st0" d="M146.2,84.9c-1.5,0-2.9,0-4.4,0c0-1.5,0-2.9,0-4.5c1.5,0,2.9,0,4.4,0
			C146.2,81.9,146.2,83.4,146.2,84.9z"/>
		<path id="XMLID_875_" class="st0" d="M7.9,80.4c0,1.6,0,2.9,0,4.4c-1.5,0-2.9,0-4.5,0c0-1.4,0-2.9,0-4.4
			C4.9,80.4,6.3,80.4,7.9,80.4z"/>
		<path id="XMLID_874_" class="st0" d="M146.2,79.6c-1.6,0-2.9,0-4.4,0c0-1.5,0-2.9,0-4.5c1.4,0,2.8,0,4.4,0
			C146.2,76.6,146.2,78,146.2,79.6z"/>
		<path id="XMLID_873_" class="st0" d="M131.1,75.1c1.6,0,2.9,0,4.4,0c0,1.5,0,2.9,0,4.5c-1.4,0-2.8,0-4.4,0
			C131.1,78.1,131.1,76.7,131.1,75.1z"/>
		<path id="XMLID_872_" class="st0" d="M88.6,32.5c1.4,0,2.8,0,4.3,0c0,1.4,0,2.8,0,4.4c-1.3,0-2.7,0-4.3,0
			C88.6,35.6,88.6,34.2,88.6,32.5z"/>
		<path id="XMLID_871_" class="st0" d="M99.2,79.6c0-1.5,0-2.9,0-4.4c1.5,0,2.9,0,4.4,0c0,1.5,0,2.9,0,4.4
			C102.2,79.6,100.8,79.6,99.2,79.6z"/>
		<path id="XMLID_870_" class="st0" d="M99.2,37c0-1.6,0-2.9,0-4.4c1.5,0,2.9,0,4.5,0c0,1.5,0,2.9,0,4.4C102.1,37,100.7,37,99.2,37z
			"/>
		<path id="XMLID_869_" class="st0" d="M88.6,75.1c1.4,0,2.8,0,4.3,0c0,1.5,0,2.9,0,4.5c-1.5,0-2.8,0-4.3,0
			C88.6,78.2,88.6,76.7,88.6,75.1z"/>
		<path id="XMLID_868_" class="st0" d="M83.3,75.1c1.5,0,2.8,0,4.4,0c0,1.5,0,2.9,0,4.5c-1.4,0-2.8,0-4.4,0
			C83.3,78.1,83.3,76.7,83.3,75.1z"/>
		<path id="XMLID_867_" class="st0" d="M82.3,75.2c0,1.5,0,2.8,0,4.4c-1.6,0-2.9,0-4.5,0c0-1.5,0-2.8,0-4.4
			C79.3,75.2,80.7,75.2,82.3,75.2z"/>
		<path id="XMLID_866_" class="st0" d="M3.4,21.1c0-1.5,0-2.9,0-4.5c1.5,0,2.9,0,4.4,0c0,1.5,0,2.9,0,4.5
			C6.3,21.1,4.9,21.1,3.4,21.1z"/>
		<path id="XMLID_865_" class="st0" d="M141.8,21.1c0-1.5,0-2.9,0-4.4c1.5,0,2.9,0,4.4,0c0,1.5,0,2.9,0,4.4
			C144.7,21.1,143.4,21.1,141.8,21.1z"/>
		<path id="XMLID_864_" class="st0" d="M7.8,26.3c-1.6,0-2.9,0-4.4,0c0-1.5,0-2.9,0-4.5c1.5,0,2.8,0,4.4,0
			C7.8,23.3,7.8,24.8,7.8,26.3z"/>
		<path id="XMLID_863_" class="st0" d="M14.2,21.8c1.5,0,2.8,0,4.3,0c0,1.5,0,2.9,0,4.5c-1.4,0-2.7,0-4.3,0
			C14.2,24.8,14.2,23.3,14.2,21.8z"/>
		<path id="XMLID_862_" class="st0" d="M19.3,26.3c0-1.6,0-3,0-4.4c1.5,0,2.9,0,4.5,0c0,1.5,0,2.9,0,4.4
			C22.3,26.3,20.9,26.3,19.3,26.3z"/>
		<path id="XMLID_861_" class="st0" d="M29.3,21.9c0,1.6,0,2.9,0,4.4c-1.5,0-2.9,0-4.5,0c0-1.5,0-2.9,0-4.4
			C26.3,21.9,27.7,21.9,29.3,21.9z"/>
		<path id="XMLID_860_" class="st0" d="M30.1,21.8c1.6,0,2.9,0,4.4,0c0,1.5,0,2.9,0,4.5c-1.4,0-2.8,0-4.4,0
			C30.1,24.9,30.1,23.5,30.1,21.8z"/>
		<path id="XMLID_859_" class="st0" d="M50.4,21.9c0,1.6,0,2.9,0,4.4c-1.5,0-2.9,0-4.4,0c0-1.4,0-2.8,0-4.4
			C47.4,21.9,48.8,21.9,50.4,21.9z"/>
		<path id="XMLID_858_" class="st0" d="M61.2,21.9c0,1.5,0,2.9,0,4.4c-1.5,0-2.9,0-4.4,0c0-1.4,0-2.8,0-4.4
			C58.1,21.9,59.5,21.9,61.2,21.9z"/>
		<path id="XMLID_857_" class="st0" d="M62,21.9c1.4,0,2.8,0,4.3,0c0,1.4,0,2.8,0,4.4c-1.3,0-2.7,0-4.3,0C62,25,62,23.6,62,21.9z"/>
		<path id="XMLID_856_" class="st0" d="M99.2,21.9c1.6,0,3,0,4.4,0c0,1.5,0,2.9,0,4.5c-1.5,0-2.9,0-4.4,0
			C99.2,24.8,99.2,23.4,99.2,21.9z"/>
		<path id="XMLID_855_" class="st0" d="M119.6,26.4c-1.5,0-2.9,0-4.4,0c0-1.5,0-2.9,0-4.5c1.4,0,2.8,0,4.4,0
			C119.6,23.3,119.6,24.7,119.6,26.4z"/>
		<path id="XMLID_854_" class="st0" d="M120.4,21.9c1.5,0,2.8,0,4.4,0c0,1.4,0,2.9,0,4.5c-1.5,0-2.8,0-4.4,0
			C120.4,24.9,120.4,23.5,120.4,21.9z"/>
		<path id="XMLID_853_" class="st0" d="M130.3,21.9c0,1.6,0,2.9,0,4.4c-1.5,0-2.9,0-4.5,0c0-1.4,0-2.8,0-4.4
			C127.3,21.9,128.7,21.9,130.3,21.9z"/>
		<path id="XMLID_852_" class="st0" d="M131.1,26.3c0-1.6,0-2.9,0-4.4c1.5,0,2.9,0,4.4,0c0,1.5,0,2.9,0,4.4
			C134,26.3,132.7,26.3,131.1,26.3z"/>
		<path id="XMLID_851_" class="st0" d="M141.8,21.8c1.5,0,2.8,0,4.3,0c0,1.4,0,2.8,0,4.4c-1.3,0-2.7,0-4.3,0
			C141.8,24.9,141.8,23.5,141.8,21.8z"/>
		<path id="XMLID_850_" class="st0" d="M3.5,32.6c1.4,0,2.8,0,4.4,0c0,1.5,0,2.9,0,4.5c-1.5,0-2.8,0-4.4,0
			C3.5,35.6,3.5,34.2,3.5,32.6z"/>
		<path id="XMLID_849_" class="st0" d="M130.3,64.5c0,1.6,0,2.9,0,4.4c-1.5,0-2.9,0-4.5,0c0-1.5,0-2.8,0-4.4
			C127.3,64.5,128.7,64.5,130.3,64.5z"/>
		<path id="XMLID_848_" class="st0" d="M124.9,64.5c0,1.5,0,2.8,0,4.3c-1.5,0-2.9,0-4.5,0c0-1.4,0-2.8,0-4.3
			C121.8,64.5,123.2,64.5,124.9,64.5z"/>
		<path id="XMLID_847_" class="st0" d="M119.6,68.9c-1.6,0-2.9,0-4.4,0c0-1.5,0-2.9,0-4.5c1.4,0,2.8,0,4.4,0
			C119.6,65.9,119.6,67.3,119.6,68.9z"/>
		<path id="XMLID_846_" class="st0" d="M146.2,53c-1.5,0-2.8,0-4.3,0c0-1.4,0-2.8,0-4.4c1.4,0,2.8,0,4.3,0
			C146.2,49.9,146.2,51.3,146.2,53z"/>
		<path id="XMLID_845_" class="st0" d="M88.5,68.8c0-1.5,0-2.9,0-4.4c1.5,0,2.9,0,4.4,0c0,1.4,0,2.8,0,4.4
			C91.5,68.8,90.1,68.8,88.5,68.8z"/>
		<path id="XMLID_844_" class="st0" d="M87.7,68.9c-1.5,0-2.9,0-4.5,0c0-1.5,0-2.9,0-4.4c1.5,0,2.9,0,4.5,0
			C87.7,65.9,87.7,67.3,87.7,68.9z"/>
		<path id="XMLID_843_" class="st0" d="M77.8,68.9c0-1.6,0-2.9,0-4.4c1.5,0,2.9,0,4.5,0c0,1.5,0,2.9,0,4.4
			C80.8,68.9,79.4,68.9,77.8,68.9z"/>
		<path id="XMLID_842_" class="st0" d="M61.9,64.4c1.5,0,2.9,0,4.4,0c0,1.5,0,2.9,0,4.4c-1.4,0-2.8,0-4.4,0
			C61.9,67.4,61.9,66,61.9,64.4z"/>
		<path id="XMLID_841_" class="st0" d="M18.5,58.2c-1.4,0-2.7,0-4.3,0c0-1.5,0-2.9,0-4.5c1.4,0,2.7,0,4.3,0
			C18.5,55.2,18.5,56.6,18.5,58.2z"/>
		<path id="XMLID_840_" class="st0" d="M50.4,58.3c-1.5,0-2.9,0-4.4,0c0-1.5,0-2.9,0-4.5c1.4,0,2.8,0,4.4,0
			C50.4,55.2,50.4,56.6,50.4,58.3z"/>
		<path id="XMLID_839_" class="st0" d="M18.5,68.9c-1.5,0-2.8,0-4.3,0c0-1.4,0-2.8,0-4.4c1.3,0,2.7,0,4.3,0
			C18.5,65.8,18.5,67.2,18.5,68.9z"/>
		<path id="XMLID_838_" class="st0" d="M3.4,68.8c0-1.5,0-2.9,0-4.4c1.5,0,2.9,0,4.5,0c0,1.4,0,2.8,0,4.4C6.4,68.8,5,68.8,3.4,68.8z
			"/>
		<path id="XMLID_837_" class="st0" d="M141.7,63.6c0-1.6,0-2.9,0-4.4c1.5,0,2.9,0,4.5,0c0,1.5,0,2.8,0,4.4
			C144.7,63.6,143.2,63.6,141.7,63.6z"/>
		<path id="XMLID_836_" class="st0" d="M135.6,59.2c0,1.5,0,2.8,0,4.4c-1.4,0-2.8,0-4.4,0c0-1.4,0-2.7,0-4.4
			C132.5,59.2,133.9,59.2,135.6,59.2z"/>
		<path id="XMLID_835_" class="st0" d="M146.2,58.3c-1.5,0-2.8,0-4.3,0c0-1.5,0-2.9,0-4.5c1.4,0,2.8,0,4.3,0
			C146.2,55.2,146.2,56.6,146.2,58.3z"/>
		<path id="XMLID_834_" class="st0" d="M3.4,59.2c1.6,0,2.9,0,4.4,0c0,1.5,0,2.9,0,4.5c-1.5,0-2.9,0-4.4,0
			C3.4,62.1,3.4,60.7,3.4,59.2z"/>
		<path id="XMLID_833_" class="st0" d="M50.4,59.2c0,1.5,0,2.9,0,4.4c-1.5,0-2.8,0-4.3,0c0-1.4,0-2.8,0-4.4
			C47.4,59.2,48.7,59.2,50.4,59.2z"/>
		<path id="XMLID_832_" class="st0" d="M18.6,59.2c0,1.5,0,2.8,0,4.4c-1.4,0-2.8,0-4.4,0c0-1.3,0-2.7,0-4.4
			C15.5,59.2,16.9,59.2,18.6,59.2z"/>
		<path id="XMLID_831_" class="st0" d="M61.1,75.2c0,1.4,0,2.8,0,4.3c-1.4,0-2.8,0-4.4,0c0-1.3,0-2.7,0-4.3
			C58,75.2,59.4,75.2,61.1,75.2z"/>
		<path id="XMLID_830_" class="st0" d="M115.2,37c0-1.5,0-2.9,0-4.5c1.5,0,2.9,0,4.4,0c0,1.5,0,2.9,0,4.5
			C118.2,37,116.8,37,115.2,37z"/>
		<path id="XMLID_829_" class="st0" d="M30,79.5c0-1.4,0-2.8,0-4.3c1.4,0,2.8,0,4.4,0c0,1.3,0,2.7,0,4.3
			C33.1,79.5,31.7,79.5,30,79.5z"/>
		<path id="XMLID_828_" class="st0" d="M24.9,75.1c1.5,0,2.9,0,4.4,0c0,1.5,0,2.8,0,4.4c-1.4,0-2.8,0-4.4,0
			C24.9,78.2,24.9,76.8,24.9,75.1z"/>
		<path id="XMLID_827_" class="st0" d="M23.9,75.1c0,1.5,0,2.9,0,4.4c-1.5,0-2.9,0-4.5,0c0-1.4,0-2.8,0-4.4
			C20.8,75.1,22.2,75.1,23.9,75.1z"/>
		<path id="XMLID_826_" class="st0" d="M14.1,75.1c1.6,0,2.9,0,4.4,0c0,1.5,0,2.9,0,4.5c-1.4,0-2.8,0-4.4,0
			C14.1,78.1,14.1,76.7,14.1,75.1z"/>
		<path id="XMLID_825_" class="st0" d="M7.9,75.2c0,1.5,0,2.9,0,4.4c-1.5,0-2.9,0-4.5,0c0-1.4,0-2.8,0-4.4
			C4.8,75.2,6.2,75.2,7.9,75.2z"/>
		<path id="XMLID_824_" class="st0" d="M124.8,37c-1.6,0-2.9,0-4.4,0c0-1.5,0-2.9,0-4.5c1.5,0,2.9,0,4.4,0
			C124.8,34.1,124.8,35.4,124.8,37z"/>
		<path id="XMLID_823_" class="st0" d="M130.2,37c-1.4,0-2.8,0-4.3,0c0-1.4,0-2.8,0-4.4c1.3,0,2.7,0,4.3,0
			C130.2,33.9,130.2,35.3,130.2,37z"/>
		<path id="XMLID_822_" class="st0" d="M141.8,37c0-1.5,0-2.9,0-4.4c1.5,0,2.9,0,4.4,0c0,1.5,0,2.9,0,4.4
			C144.7,37,143.3,37,141.8,37z"/>
		<path id="XMLID_821_" class="st0" d="M8.1,42.3c-1.7,0-3.1,0-4.6,0c0-1.6,0-3,0-4.5c1.5,0,2.8,0,4.4,0C7.9,39.2,8,40.5,8.1,42.3z"
			/>
		<path id="XMLID_820_" class="st0" d="M18.5,37.8c0,1.5,0,2.9,0,4.5c-1.5,0-2.9,0-4.4,0c0-1.5,0-2.9,0-4.5
			C15.6,37.8,16.9,37.8,18.5,37.8z"/>
		<path id="XMLID_819_" class="st0" d="M45.9,42.2c0-1.5,0-2.8,0-4.4c1.5,0,2.8,0,4.4,0c0,1.4,0,2.8,0,4.4
			C49,42.2,47.6,42.2,45.9,42.2z"/>
		<path id="XMLID_818_" class="st0" d="M103.7,37.8c0,1.6,0,3,0,4.5c-1.5,0-2.8,0-4.4,0c0-1.4,0-2.9,0-4.5
			C100.7,37.8,102,37.8,103.7,37.8z"/>
		<path id="XMLID_817_" class="st0" d="M141.8,37.8c1.6,0,3,0,4.4,0c0,1.5,0,2.9,0,4.5c-1.5,0-2.9,0-4.4,0
			C141.8,40.7,141.8,39.4,141.8,37.8z"/>
		<path id="XMLID_816_" class="st0" d="M7.8,53c-1.5,0-2.8,0-4.3,0c0-1.4,0-2.8,0-4.4c1.3,0,2.7,0,4.3,0C7.8,49.9,7.8,51.3,7.8,53z"
			/>
		<path id="XMLID_815_" class="st0" d="M141.7,68.8c0-1.4,0-2.8,0-4.3c1.4,0,2.8,0,4.4,0c0,1.3,0,2.7,0,4.3
			C144.8,68.8,143.5,68.8,141.7,68.8z"/>
		<path id="XMLID_814_" class="st0" d="M131.1,64.4c1.6,0,2.9,0,4.4,0c0,1.5,0,2.9,0,4.5c-1.5,0-2.9,0-4.4,0
			C131.1,67.4,131.1,66,131.1,64.4z"/>
	</g>
</g>
</svg>
