<?xml version="1.0" encoding="utf-8"?>
<!-- Generator: Adobe Illustrator 19.0.0, SVG Export Plug-In . SVG Version: 6.00 Build 0)  -->
<!DOCTYPE svg PUBLIC "-//W3C//DTD SVG 1.1//EN" "http://www.w3.org/Graphics/SVG/1.1/DTD/svg11.dtd">
<svg version="1.1" id="Layer_1" xmlns="http://www.w3.org/2000/svg" xmlns:xlink="http://www.w3.org/1999/xlink" x="0px" y="0px"
	 viewBox="0 0 100 100" style="enable-background:new 0 0 100 100;" xml:space="preserve">
<style type="text/css">
	.st0{fill:url(#XMLID_4_);}
</style>
<g id="XMLID_1_">
	<g id="XMLID_2_">
		<linearGradient id="XMLID_4_" gradientUnits="userSpaceOnUse" x1="50" y1="94.9086" x2="50" y2="10.934">
			<stop  offset="0" style="stop-color:#BE1E2D"/>
			<stop  offset="1" style="stop-color:#EF4136"/>
		</linearGradient>
		<path id="XMLID_28_" class="st0" d="M11.6,33.6c0-5.8,0-11.5,0-17.3c0-2.2,0.9-3.1,3.1-3.1c5.2,0,10.5,0,15.7,0
			c1.3,0,2.3,0.3,3,1.5c0.2,0.3,1.1,0.5,1.6,0.4c3.4-0.7,6.9-1.5,10.3-2.2c3.8-0.7,7.7-1.8,11.5-2c6.6-0.3,13,1,19.4,2.8
			c2.1,0.6,3.9,1.7,5.5,3.4c1.5,1.6,2.3,3.4,1.5,5.6c-0.5,1.4-0.2,2.5,0.7,3.6c2.3,2.6,3,5.6,1.6,8.9c-0.1,0.3,0,0.8,0.2,1.2
			c0.2,0.4,0.5,0.6,0.7,1c2.5,3.3,2.6,5.9,0.5,9.4c-0.5,0.9-0.6,1.5-0.1,2.3c2.9,5.4,1.1,11.2-4.4,13.9c-1.6,0.8-3.6,1-5.5,1.1
			c-4.5,0.2-9,0.1-13.5,0.2c-0.2,0-0.3,0-0.5,0c-2.3,0.4-2.4,0.7-1.3,2.4c0.9,1.5,1.7,3.1,2.8,4.5c3.4,4.8,3.6,10,1.9,15.3
			c-0.7,2.1-1.8,4.1-3.1,5.9c-1.6,2.2-3.9,3.1-6.7,2.3c-2.7-0.8-3.7-3-4.2-5.6c-0.6-3-1.3-5.9-2.1-8.8c-0.6-1.9-1.8-3.6-3.3-4.9
			c-0.6-0.6-1.2-1.2-1.8-1.7c-3.3-3.1-5.8-6.7-7.2-11c-0.8-2.5-2.2-4.9-3.5-7.3c-0.5-1-1.2-1.6-2.8-1.3c-2,0.5-4.2,0.2-6.3,0.2
			c-3.6,0-7.1,0-10.7,0c-2.2,0-3.1-0.9-3.1-3.2c0-2.9,0-5.8,0-8.8C11.6,39.3,11.6,36.4,11.6,33.6z M33.7,20.4c0,0.3-0.1,0.5-0.1,0.6
			c0,8.6,0,17.1,0,25.7c0,0.4,0.4,0.9,0.7,1.2c1.6,1.6,3.5,2.9,4.7,4.7c1.6,2.6,2.9,5.5,3.9,8.4c1.2,3.2,2.9,5.9,5.4,8.2
			c0.8,0.7,1.5,1.5,2.2,2.2c2,1.8,3.4,4,4.5,6.5c1.4,3.3,2.1,6.8,2.6,10.3c0.1,0.5,0.4,0.9,0.6,1.3c0.4-0.3,0.8-0.6,1.2-0.9
			c0.1-0.1,0.2-0.2,0.3-0.4c2.9-4.2,3-9.8,0.3-14.2c-0.8-1.3-1.7-2.6-2.4-4c-0.7-1.4-1.4-2.8-1.9-4.2c-0.6-1.6-0.1-3.1,1.2-4.4
			c1.9-1.8,4.2-2.5,6.8-2.5c4.5,0,8.9-0.1,13.4-0.1c2.7,0,4.7-1.2,5.8-3.6c0.3-0.6,0.3-1.5,0.1-2.1c-0.4-1.2-1-2.2-1.6-3.3
			c-0.7-1.4-0.7-2.7,0.1-4c0.4-0.7,0.8-1.4,1.2-2.1c0.7-1,0.7-2-0.2-3c-0.7-0.7-1.2-1.6-1.8-2.4c-0.9-1.2-1.2-2.6-0.4-3.9
			c1.2-2.1,0.8-3.9-0.9-5.5c-0.1-0.1-0.2-0.3-0.4-0.5c-1.4-1.5-1.7-3.3-1.2-5.2c0.5-2.4,0.3-2.9-2.1-4c-0.6-0.3-1.3-0.5-1.9-0.7
			C71.2,18,68.6,17.4,66,17c-5.4-1-10.8-1.1-16.3,0.3C44.5,18.6,39.3,20.4,33.7,20.4z M16.7,18.5c0,10.2,0,20.2,0,30.4
			c3.9,0,7.8,0,11.6,0c0-10.2,0-20.2,0-30.4C24.4,18.5,20.6,18.5,16.7,18.5z"/>
	</g>
</g>
</svg>
