<?xml version="1.0" encoding="utf-8"?>
<!-- Generator: Adobe Illustrator 19.0.0, SVG Export Plug-In . SVG Version: 6.00 Build 0)  -->
<!DOCTYPE svg PUBLIC "-//W3C//DTD SVG 1.1//EN" "http://www.w3.org/Graphics/SVG/1.1/DTD/svg11.dtd">
<svg version="1.1" id="Layer_1" xmlns="http://www.w3.org/2000/svg" xmlns:xlink="http://www.w3.org/1999/xlink" x="0px" y="0px"
	 viewBox="0 0 100 100" style="enable-background:new 0 0 100 100;" xml:space="preserve">
<style type="text/css">
	.st0{fill:#004A80;}
</style>
<g>
	<path class="st0" d="M42.1,62.9l-0.2-2.6C41.3,54.9,43.1,49,48.1,43c4.5-5.3,7-9.2,7-13.7c0-5.1-3.2-8.5-9.5-8.6
		c-3.6,0-7.6,1.2-10.1,3.1l-2.4-6.3c3.3-2.4,9-4,14.3-4c11.5,0,16.7,7.1,16.7,14.7c0,6.8-3.8,11.7-8.6,17.4c-4.4,5.2-6,9.6-5.7,14.7
		l0.1,2.6H42.1z M39.9,76.9c0-3.7,2.5-6.3,6-6.3c3.5,0,5.9,2.6,5.9,6.3c0,3.5-2.3,6.2-6,6.2C42.3,83.1,39.9,80.4,39.9,76.9z"/>
</g>
</svg>
