<?xml version="1.0" encoding="utf-8"?>
<!-- Generator: Adobe Illustrator 19.0.0, SVG Export Plug-In . SVG Version: 6.00 Build 0)  -->
<!DOCTYPE svg PUBLIC "-//W3C//DTD SVG 1.1//EN" "http://www.w3.org/Graphics/SVG/1.1/DTD/svg11.dtd">
<svg version="1.1" id="Layer_1" xmlns="http://www.w3.org/2000/svg" xmlns:xlink="http://www.w3.org/1999/xlink" x="0px" y="0px"
	 viewBox="0 0 75 125" style="enable-background:new 0 0 75 125;" xml:space="preserve">
<style type="text/css">
	.st0{fill:#004A80;}
</style>
<g id="XMLID_27_">
	<path id="XMLID_38_" class="st0" d="M37.7,86.3c-0.3,0-0.5-0.1-0.7-0.1c-0.8,0-1.5,0-2.5,0c0,0.5,0,0.9,0,1.3c0,6.9,0,13.8,0,20.8
		c0,0.5,0,1-0.1,1.4c-0.7,3.8-2.8,4-5.9,3.3c-1.5-0.3-1.9-1.9-2.1-3.4c-0.1-0.5,0-1,0-1.4c0-10.7,0-21.4,0-32c0-0.9-0.3-1.3-1-1.8
		c-2.3-1.4-4.6-2.8-6.7-4.4c-2.4-1.8-2.9-4.2-1.5-6.9c2.4-4.7,5.6-8.7,9.6-12c4.2-3.5,9.1-4.1,14.2-2.8c1.4,0.3,2.6,1.4,4,2.2
		c1.7-1.5,3.5-3.1,5.4-4.9c-1.7-1.9-3.4-3.8-5-5.5c-1.1,1.4-2.1,2.8-3.3,3.9c-3.3,2.9-8.1,3-11.8,0.5c-3.6-2.4-5.2-7-3.8-11.2
		c1.3-4.1,5.2-6.9,9.6-6.8c2.7,0,5,1.1,6.9,2.9c0.4,0.4,0.9,0.5,1.4,0.8c0.7,0.4,1.4,0.8,1.9,1.4c3.8,4.1,7.5,8.2,11.2,12.3
		c1.6,1.8,1.5,3.5-0.2,5.3c-2.7,2.7-5.4,5.4-8.2,7.9c-1.4,1.3-1.9,2.7-2.2,4.5c-1,8.2-1.1,16.4-1,24.7c0.1,7.6,0.2,15.1,0,22.7
		c-0.1,4.3-2.6,4.7-5.9,3.9c-1.8-0.4-2.1-2.3-2.1-3.9c0-4.1,0-8.2,0-12.4c0-3.1,0-6.2,0-9.2C37.7,87.2,37.7,86.8,37.7,86.3z
		 M26.4,63.5c-0.9,1-1.5,1.7-2.3,2.6c0.8,0.5,1.5,0.8,2.3,1.3C26.4,66.1,26.4,64.9,26.4,63.5z"/>
	<path id="XMLID_37_" class="st0" d="M62.6,15.2c-0.5,0.9-0.9,1.9-1.5,2.8c-0.6,0.8-1.5,1.3-2.1,2.1c-0.6,0.7-1.2,1.6-1.5,2.5
		c-0.4,0.9-0.8,1.5-1.8,1.4c-1-0.2-1.5-1-1.2-1.9c0.3-1.1,0.8-2.2,1.4-3.1c0.6-0.8,1.4-1.4,2.2-2.1c1.2-1.1,1.2-2.5,0.2-3.5
		c-1.1-1-3.2-0.9-4,0.2c-0.4,0.6-0.7,1.2-1,1.9c-0.4,1-1.1,1.5-2.1,1.1c-1-0.3-1.3-1.1-1.1-2.1c0.3-1.5,1.1-2.6,2.3-3.3
		c2.4-1.5,4.9-1.5,7.4-0.2C61.6,11.9,62.4,13.4,62.6,15.2z"/>
	<path id="XMLID_36_" class="st0" d="M54.6,28.6c0.1-1,0.9-1.7,1.9-1.7c1,0,1.8,0.9,1.7,1.9c0,1-0.9,1.8-1.9,1.8
		C55.3,30.5,54.5,29.7,54.6,28.6z"/>
</g>
</svg>
