<?xml version="1.0" encoding="utf-8"?>
<!-- Generator: Adobe Illustrator 19.0.0, SVG Export Plug-In . SVG Version: 6.00 Build 0)  -->
<!DOCTYPE svg PUBLIC "-//W3C//DTD SVG 1.1//EN" "http://www.w3.org/Graphics/SVG/1.1/DTD/svg11.dtd">
<svg version="1.1" id="Layer_1" xmlns="http://www.w3.org/2000/svg" xmlns:xlink="http://www.w3.org/1999/xlink" x="0px" y="0px"
	 viewBox="0 0 100 100" style="enable-background:new 0 0 100 100;" xml:space="preserve">
<style type="text/css">
	.st0{fill:url(#XMLID_2_);}
</style>
<linearGradient id="XMLID_2_" gradientUnits="userSpaceOnUse" x1="50" y1="90.675" x2="50" y2="9.325">
	<stop  offset="0" style="stop-color:#F7941E"/>
	<stop  offset="1" style="stop-color:#F9ED32"/>
</linearGradient>
<path id="XMLID_36_" class="st0" d="M93.4,20.1c0,5.5,0,11.1,0,16.6c-0.1,0.2-0.1,0.5-0.2,0.7c-0.6,5.9-3.7,10.1-9.1,12.6
	c-2.5,1.1-5.2,1.8-8,2.2c-0.6,0.1-1.1,0-1.4,0.8C70.9,61,64.7,66.1,56,68.3c-0.5,0.1-0.6,0.3-0.6,0.8c0,1.8,0,3.6,0,5.3
	c0,2.1,0.7,3.9,2.3,5.3c1.3,1.1,2.7,2,4.3,2.7c4.5,2,9.4,2.5,14.3,2.8c2,0.1,4.1,0.2,6.2,0.2c0,1.8,0,3.6,0,5.4
	c-21.7,0-43.4,0-65.1,0c0-1.8,0-3.6,0-5.4c0.6,0,1.2,0,1.7,0c4.4-0.1,8.7-0.3,13-1.2c3.1-0.6,6.2-1.5,8.8-3.3c1.9-1.3,3.4-3,3.6-5.4
	c0.2-2.2,0.1-4.4,0.1-6.6c0-0.2-0.4-0.4-0.6-0.5c-8.5-2.1-14.7-7.1-18.5-15c-0.4-0.8-0.8-1.1-1.6-1.2c-2.5-0.3-4.9-0.9-7.3-1.8
	c-5-2.1-8.4-5.6-9.5-11c-0.2-0.8-0.3-1.6-0.4-2.4c0-5.6,0-11.2,0-16.8c5.4,0,10.8,0,16.3,0c-1.8-3.7-3.6-7.2-5.4-10.8
	c21.7,0,43.4,0,65.1,0c-1.8,3.6-3.6,7.2-5.4,10.8C82.7,20.1,88.1,20.1,93.4,20.1z M49.9,17.4c-0.2,0.4-0.3,0.7-0.4,0.9
	c-1.4,4.1-2.9,8.2-4.3,12.4c-0.2,0.7-0.6,0.9-1.3,0.9c-4,0-8,0.1-12,0.2c-0.6,0-1.3,0-1.9,0c0.2,0.4,0.4,0.6,0.7,0.8
	c3.5,2.6,6.9,5.3,10.4,7.9c0.5,0.4,0.6,0.7,0.4,1.3c-1,3.2-2,6.5-3,9.7c-0.4,1.2-0.7,2.5-1.2,3.9c0.5-0.3,0.8-0.5,1-0.7
	c3.6-2.5,7.1-5,10.7-7.5c0.5-0.3,0.8-0.3,1.3,0c3.3,2.3,6.6,4.6,9.9,6.9c0.6,0.4,1.2,0.8,1.9,1.3c-1.4-4.7-2.7-9.1-4.1-13.6
	c-0.2-0.6,0-1,0.5-1.3c3.5-2.6,6.9-5.2,10.3-7.8c0.3-0.2,0.5-0.4,0.9-0.7c-0.5,0-0.8-0.1-1.1-0.1c-4.4-0.1-8.7-0.2-13.1-0.3
	c-0.6,0-0.9-0.2-1.1-0.8c-0.6-1.9-1.3-3.8-2-5.8C51.7,22.6,50.8,20.1,49.9,17.4z M88,25.6c-3.7,0-7.2,0-10.8,0c0,7,0,14,0,21.1
	c1.5-0.5,3-0.9,4.4-1.4c3.9-1.6,6.1-4.4,6.3-8.6C88,33.8,88,31,88,28.1C88,27.3,88,26.5,88,25.6z M22.8,25.6c-3.6,0-7.2,0-10.7,0
	c0,3.7,0,7.3,0,10.9c0,1.7,0.5,3.3,1.4,4.8c2.2,3.4,5.6,4.5,9.3,5.3C22.8,39.5,22.8,32.6,22.8,25.6z"/>
</svg>
